<?xml version="1.0" encoding="utf-8"?>
<!-- Generator: Adobe Illustrator 19.1.0, SVG Export Plug-In . SVG Version: 6.00 Build 0)  -->
<!DOCTYPE svg PUBLIC "-//W3C//DTD SVG 1.1//EN" "http://www.w3.org/Graphics/SVG/1.1/DTD/svg11.dtd">
<svg version="1.1" id="Layer_1" xmlns="http://www.w3.org/2000/svg" xmlns:xlink="http://www.w3.org/1999/xlink" x="0px" y="0px"
	 viewBox="0 0 32 32" style="enable-background:new 0 0 32 32;" xml:space="preserve">
<style type="text/css">
	.st0{fill:#5EA1EC;}
	.st1{fill:#2A4A8D;}
	.st2{fill:#6690BF;}
	.st3{fill:#D43333;}
</style>
<path class="st1" d="M26.9,2H5.1C3.4,2,2,3.4,2,5.1v21.8C2,28.6,3.4,30,5.1,30H16V19.1h-3.1v-3.9H16v-3.2c0-3.4,1.9-5.7,5.9-5.7
	l2.8,0v4.1h-1.9c-1.5,0-2.1,1.2-2.1,2.2v2.6h4l-0.9,3.8h-3.1V30h6.2c1.7,0,3.1-1.4,3.1-3.1V5.1C30,3.4,28.6,2,26.9,2z"/>
</svg>
