<?xml version="1.0" encoding="UTF-8" standalone="no"?>
<svg width="28px" height="28px" viewBox="0 0 28 28" version="1.1" xmlns="http://www.w3.org/2000/svg" xmlns:xlink="http://www.w3.org/1999/xlink" xmlns:sketch="http://www.bohemiancoding.com/sketch/ns">
    <!-- Generator: Sketch 3.5.1 (25234) - http://www.bohemiancoding.com/sketch -->
    <title>Shape</title>
    <desc>Created with Sketch.</desc>
    <defs></defs>
    <g id="Page-1" stroke="none" stroke-width="1" fill="none" fill-rule="evenodd" sketch:type="MSPage">
        <g id="facebook" sketch:type="MSLayerGroup" fill="#FFFFFF">
            <path d="M24.9,0 L3.1,0 C1.4,0 0,1.4 0,3.1 L0,24.9 C0,26.6 1.4,28 3.1,28 L14,28 L14,17.1 L10.9,17.1 L10.9,13.2 L14,13.2 L14,10 C14,6.6 15.9,4.3 19.9,4.3 L22.7,4.3 L22.7,8.4 L20.8,8.4 C19.3,8.4 18.7,9.6 18.7,10.6 L18.7,13.2 L22.7,13.2 L21.8,17 L18.7,17 L18.7,28 L24.9,28 C26.6,28 28,26.6 28,24.9 L28,3.1 C28,1.4 26.6,0 24.9,0 L24.9,0 Z" id="Shape" sketch:type="MSShapeGroup"></path>
        </g>
    </g>
</svg>