<?xml version="1.0" encoding="UTF-8" standalone="no"?>
<svg width="28px" height="24px" viewBox="0 0 28 24" version="1.1" xmlns="http://www.w3.org/2000/svg" xmlns:xlink="http://www.w3.org/1999/xlink" xmlns:sketch="http://www.bohemiancoding.com/sketch/ns">
    <!-- Generator: Sketch 3.5.1 (25234) - http://www.bohemiancoding.com/sketch -->
    <title>twitter-w 2</title>
    <desc>Created with Sketch.</desc>
    <defs></defs>
    <g id="Page-1" stroke="none" stroke-width="1" fill="none" fill-rule="evenodd" sketch:type="MSPage">
        <g id="twitter-w" sketch:type="MSLayerGroup" fill="#FFFFFF">
            <path d="M25.1,6.3 L25.1,7 C25.1,14.6 19.3,23.3 8.8,23.3 C5.6,23.3 2.5,22.3 0,20.7 C0.5,20.8 0.9,20.8 1.4,20.8 C4.1,20.8 6.6,19.9 8.5,18.3 C6,18.3 3.9,16.6 3.1,14.3 C3.4,14.4 3.8,14.4 4.2,14.4 C4.7,14.4 5.2,14.3 5.7,14.2 C3.1,13.7 1.1,11.3 1.1,8.6 C1.1,8.6 1.1,8.6 1.1,8.5 C1.9,8.9 2.8,9.2 3.7,9.2 C2.2,8.2 1.1,6.4 1.1,4.4 C1.1,3.3 1.4,2.4 1.9,1.5 C4.7,5 9,7.3 13.7,7.5 C13.6,7.1 13.6,6.6 13.6,6.2 C13.6,3 16.2,0.5 19.3,0.5 C21,0.5 22.4,1.2 23.5,2.3 C24.8,2 26,1.6 27.1,0.9 C26.7,2.2 25.8,3.4 24.6,4.1 C25.9,4.1 27,3.8 28,3.3 C27.2,4.5 26.3,5.5 25.1,6.3 L25.1,6.3 Z" id="Shape" sketch:type="MSShapeGroup"></path>
        </g>
    </g>
</svg>