<?xml version="1.0" encoding="utf-8"?>
<!-- Generator: Adobe Illustrator 19.1.0, SVG Export Plug-In . SVG Version: 6.00 Build 0)  -->
<!DOCTYPE svg PUBLIC "-//W3C//DTD SVG 1.1//EN" "http://www.w3.org/Graphics/SVG/1.1/DTD/svg11.dtd">
<svg version="1.1" id="Layer_1" xmlns="http://www.w3.org/2000/svg" xmlns:xlink="http://www.w3.org/1999/xlink" x="0px" y="0px"
	 viewBox="0 0 32 32" style="enable-background:new 0 0 32 32;" xml:space="preserve">
<style type="text/css">
	.st0{fill:#5EA1EC;}
	.st1{fill:#2A4A8D;}
	.st2{fill:#6690BF;}
	.st3{fill:#D43333;}
</style>
<path d="M27.1,10.3c0,0.2,0,0.5,0,0.7c0,7.6-5.8,16.3-16.3,16.3c-3.2,0-6.3-1-8.8-2.6c0.5,0.1,0.9,0.1,1.4,0.1
	c2.7,0,5.2-0.9,7.1-2.5c-2.5,0-4.6-1.7-5.4-4c0.3,0.1,0.7,0.1,1.1,0.1c0.5,0,1-0.1,1.5-0.2c-2.6-0.5-4.6-2.9-4.6-5.6c0,0,0,0,0-0.1
	c0.8,0.4,1.7,0.7,2.6,0.7c-1.5-1-2.6-2.8-2.6-4.8c0-1.1,0.3-2,0.8-2.9c2.8,3.5,7.1,5.8,11.8,6c-0.1-0.4-0.1-0.9-0.1-1.3
	c0-3.2,2.6-5.7,5.7-5.7c1.7,0,3.1,0.7,4.2,1.8c1.3-0.3,2.5-0.7,3.6-1.4c-0.4,1.3-1.3,2.5-2.5,3.2C27.9,8.1,29,7.8,30,7.3
	C29.2,8.5,28.3,9.5,27.1,10.3z"/>
</svg>
